<svg preserveAspectRatio="none" overflow="visible" style="display: block;" width="104.035" height="79.0418" viewBox="0 0 104.035 79.0418" fill="none" xmlns="http://www.w3.org/2000/svg">
<g id="Group">
<path id="Vector" d="M20.467 0.162501C20.5889 -0.0406244 20.7514 0.040625 20.8733 0C20.792 0.1625 20.6498 0.162501 20.467 0.162501Z" fill="#FE9859"/>
<g id="Group_2">
<path id="Vector_2" d="M104.012 4.02188C104.053 4.08282 104.033 4.16407 103.992 4.22501C102.448 5.52501 100.965 6.90626 99.5232 8.34844C93.3076 14.5031 87.7826 21.2266 82.8061 28.3969C77.0982 36.6234 72.2436 45.3172 68.3029 54.4984C65.7842 60.3688 63.692 66.3813 61.9857 72.5563C61.742 73.45 61.2342 74.2625 60.7467 75.0547C60.0764 76.1516 59.2842 77.1469 58.2076 77.8984C55.9529 79.4625 53.0482 79.4219 50.8748 77.7766C49.3514 76.6188 48.1326 75.1969 47.2795 73.4906C44.0092 66.95 40.5764 60.4906 36.7779 54.2344C34.5029 50.4766 32.0857 46.8203 29.2826 43.4281C28.8967 42.9813 28.5107 42.5344 28.1248 42.0875C27.8404 41.7422 27.8404 41.7016 28.2467 41.5391C29.7498 40.9094 31.2732 40.2797 32.7764 39.6297C33.0201 39.5281 33.2029 39.5281 33.4264 39.6906C35.4779 41.2344 37.3873 42.9406 39.2357 44.7281C41.6936 47.1047 44.0295 49.5828 46.2436 52.2031C47.8889 54.1531 49.4123 56.1844 50.7326 58.3781C51.2201 59.1703 51.7889 59.9219 52.3576 60.7547C52.4592 60.5109 52.5404 60.3281 52.6217 60.1453C54.7342 55.4531 57.1311 50.9031 59.7311 46.475C63.0623 40.7875 66.6779 35.3234 70.6186 30.0422C73.4014 26.3047 76.3467 22.6891 79.4342 19.1953C81.7904 16.5344 84.2686 13.975 86.8279 11.5172C90.7889 7.71876 95.0342 4.28595 99.6248 1.27969C100.031 1.01563 100.458 0.731257 100.844 0.446882C101.067 0.284382 101.169 0.304695 101.331 0.528132C102.144 1.62501 102.956 2.72188 103.769 3.81876C103.87 3.83907 103.931 3.94063 104.012 4.02188Z" fill="#FE904D"/>
<path id="Vector_3" d="M14.5156 27.8281C14.3937 27.3406 14.7187 26.8125 14.5766 26.2438C14.4547 25.8375 14.3328 25.411 14.3937 24.9844C14.475 24.5172 14.4141 23.9891 14.9625 23.7047C15.1656 23.6031 15.2875 23.3594 15.3078 23.1359C15.3891 22.6281 15.7953 22.3844 16.1609 22.1203C16.3437 21.9781 16.5266 21.9172 16.5266 21.6328C16.5266 21.4906 16.6484 21.3688 16.7703 21.3078C17.1156 21.1453 17.3594 20.8406 17.5219 20.5156C17.7656 20.0485 18.0906 19.7031 18.6187 19.5406C18.7812 19.5 18.9031 19.3781 18.9844 19.1953C19.1062 18.911 19.9594 18.5859 20.2641 18.7484C20.5687 18.8906 20.8125 18.8297 21.0766 18.7484C21.3406 18.6875 21.6047 18.5859 21.8687 18.5656C22.0109 18.5453 22.1531 18.525 22.2547 18.6469C22.2953 18.6875 22.3359 18.7078 22.3969 18.7078C23.3516 18.5453 24.225 18.8906 25.0781 19.2359C25.3828 19.3578 25.6672 19.5609 26.0328 19.5609C26.0734 19.5609 26.1344 19.5813 26.1547 19.6016C26.2766 19.9469 26.5609 19.8453 26.7844 19.8453C27.1094 19.8453 27.3734 19.8453 27.6172 20.15C27.8406 20.4344 28.2469 20.5156 28.6125 20.6172C29.0391 20.7391 29.4453 20.861 29.7297 21.2266C29.8922 21.45 30.1766 21.5516 30.4609 21.5313C30.7047 21.5313 30.8266 21.6531 30.9078 21.836C30.9891 22.0188 31.0703 22.1813 31.3141 22.2016C31.4156 22.2016 31.4969 22.3031 31.5781 22.4047C31.7812 22.6891 32.1062 22.8516 32.3297 23.0953C32.7766 23.5422 33.3656 23.8672 33.7109 24.4156C33.7516 24.4766 33.7922 24.5578 33.8328 24.5578C34.1781 24.5781 34.2594 24.8625 34.3609 25.1063C34.4422 25.2891 34.5234 25.4109 34.7469 25.4719C34.9906 25.5531 35.0719 25.8172 35.2141 26C35.3766 26.2641 35.5187 26.5485 35.8437 26.6906C35.9656 26.7516 36.0469 26.9141 36.1281 27.0359C36.3312 27.3406 36.4734 27.686 36.8594 27.8688C36.9406 27.9094 36.9812 28.0313 37.0219 28.1125C37.2656 28.6203 37.4484 29.1485 37.55 29.6969C37.5906 29.8797 37.6312 30.0828 37.4687 30.2656C37.4078 30.3266 37.4078 30.4281 37.4281 30.5094C37.5297 30.8344 37.5094 31.1188 37.225 31.3422C37.1641 31.4031 37.1437 31.4844 37.2453 31.525C37.5297 31.6469 37.3469 31.7485 37.225 31.8297C37.0625 31.9516 36.8797 32.0328 36.7172 32.1344C36.5344 32.2563 36.4125 32.4594 36.2703 32.5813C35.9656 32.8656 35.8031 33.2313 35.5797 33.5563C35.1125 34.2266 34.3609 34.5313 33.6703 34.9172C32.9391 35.3234 32.2484 35.7906 31.4562 36.0953C30.4812 36.461 29.4656 36.7656 28.5922 37.3141C27.9016 37.7406 27.1906 38.1063 26.4391 38.3703C26.1953 38.4516 26.1141 38.7156 25.9109 38.8375C25.2 39.2031 24.4281 39.4266 23.6562 39.5891C22.7422 39.2641 21.9906 39.8735 21.1578 40.036C20.5687 40.1375 19.9797 40.2594 19.3703 40.1578C19.2078 40.1375 19.025 40.1375 18.8422 40.1781C18.6187 40.2188 18.3953 40.2797 18.2125 40.0563C18.1312 39.975 18.0094 39.9953 17.9078 40.036C17.6234 40.1172 17.3797 40.0766 17.1562 39.8531C17.0953 39.7922 17.0141 39.7516 16.9328 39.7516C16.1203 39.65 15.5719 39.1219 15.0031 38.6141C14.9625 38.5734 14.9219 38.5125 14.8812 38.5125C14.5359 38.5734 14.4547 38.2688 14.3125 38.0656C14.1094 37.7406 13.9672 37.375 13.5812 37.2125C13.4797 37.1719 13.4187 37.0094 13.3781 36.8875C13.0937 36.2172 12.7484 35.5266 12.7281 34.7953C12.6875 33.9016 12.5453 32.9875 12.9922 32.1344C13.0937 31.9313 13.1547 31.7281 13.175 31.5047C13.1953 31.2609 13.1547 30.9969 13.4594 30.8547C13.5203 30.8141 13.5406 30.7125 13.5203 30.6516C13.4594 29.9203 13.825 29.3516 14.1703 28.7625C14.3328 28.4984 14.5766 28.2547 14.5156 27.8281Z" fill="#FE904D"/>
<path id="Vector_4" d="M21.7063 0.264065C22.4375 0.650002 23.1891 0.203127 23.9609 0.223439C24.1641 0.223439 24.3266 0.264064 24.4688 0.385939C24.6516 0.548439 24.8547 0.650002 25.0781 0.771877C25.2813 0.87344 25.4641 0.975002 25.5656 1.19844C25.5656 1.21875 25.5859 1.23906 25.6063 1.25938C26.2969 1.56406 26.3781 2.275 26.6016 2.86406C27.0891 4.12344 27.5156 5.40313 27.7391 6.76406C27.7391 6.78438 27.7594 6.80469 27.7594 6.825C27.5156 7.37344 27.7188 8.00313 27.4344 8.53125C27.3328 8.73438 27.3734 8.9375 27.3734 9.14063C27.3734 9.425 27.4141 9.70938 27.1703 9.93281C27.1297 9.97344 27.1297 10.0547 27.1297 10.1156C27.1906 10.8875 26.8047 11.4359 26.2359 11.9031C26.1547 11.9844 26.0531 12.0047 26.0938 12.1469C26.1344 12.2688 26.0125 12.35 25.9313 12.4109C25.5859 12.675 25.1797 12.8781 24.9359 13.2641C24.7938 13.4875 24.4688 13.5484 24.2047 13.6297C23.9203 13.7313 23.6156 13.8125 23.3313 13.8734C23.1688 13.9141 22.9859 13.9344 22.8438 13.7922C22.7422 13.7109 22.6203 13.7313 22.4984 13.7516C21.8281 13.8125 21.1172 13.4063 20.8125 12.7969C20.7516 12.675 20.7313 12.5125 20.5078 12.5328C20.3453 12.5328 20.325 12.3297 20.2641 12.2078C19.8578 11.2531 19.5734 10.2578 19.2281 9.2625C18.9641 8.47031 18.7406 7.6375 18.3547 6.90625C18.0703 6.37813 17.8672 5.85 17.7656 5.28125C17.6641 4.79375 17.6844 4.28594 17.7656 3.77813C17.8266 3.45313 17.9281 3.12813 18.2328 2.90469C18.4563 2.74219 18.4766 2.47813 18.5172 2.23438C18.5578 1.99063 18.5984 1.80781 18.8828 1.70625C19.0859 1.64531 19.2281 1.44219 19.3906 1.3C20.0203 0.710939 20.7922 0.406252 21.7063 0.264065Z" fill="#FE904D"/>
<path id="Vector_5" d="M7.142 5.07812C7.792 5.2203 8.38106 5.07812 8.99044 5.03749C9.17325 5.01718 9.31544 5.07812 9.45763 5.19999C9.92481 5.60624 10.4733 5.89062 11.0623 6.05312C11.2654 6.11405 11.3873 6.1953 11.5092 6.3578C11.5701 6.43905 11.6108 6.5203 11.6717 6.60155C11.8951 7.04843 12.1592 7.41405 12.5858 7.71874C13.1748 8.12499 13.6217 8.71405 13.8858 9.42499C14.4748 11.0703 15.0233 12.6953 15.3889 14.4016C15.4092 14.5437 15.4295 14.6859 15.3686 14.8078C15.2873 15.0312 15.2873 15.275 15.3279 15.5187C15.3889 15.925 15.3483 16.3312 15.1858 16.7172C15.0029 17.2047 14.6576 17.6109 14.292 17.9359C13.8045 18.3828 13.1951 18.6875 12.6467 19.0531C12.6061 19.0734 12.5248 19.1953 12.4639 19.0531C12.3826 18.7891 12.1592 18.8297 11.9764 18.8297C11.042 18.85 10.2092 18.5047 9.53888 17.9156C9.07169 17.4891 8.52325 17.1031 8.29981 16.4328C8.23888 16.2297 8.09669 16.0062 7.792 15.9656C7.6295 15.9453 7.60919 15.6812 7.52794 15.5391C7.42638 15.3562 7.44669 15.0719 7.08106 15.0922C6.91856 15.1125 6.85763 14.8484 6.79669 14.6859C6.3295 13.4266 5.88263 12.1672 5.41544 10.9078C5.192 10.3187 4.94825 9.74999 4.7045 9.18124C4.62325 8.97812 4.542 8.81562 4.66388 8.57187C4.78575 8.36874 4.66388 8.10468 4.60294 7.86093C4.56231 7.67812 4.46075 7.4953 4.74513 7.41405C4.76544 7.41405 4.78575 7.37343 4.78575 7.37343C4.60294 6.88593 5.3545 6.72343 5.192 6.23593C5.15138 6.09374 5.33419 6.05312 5.43575 6.0328C5.57794 5.99218 5.72013 5.99218 5.86231 5.97187C5.98419 5.95155 6.08575 5.89062 6.06544 5.74843C6.02481 5.44374 6.22794 5.30155 6.45138 5.2203C6.71544 5.13905 6.93888 5.11874 7.142 5.07812Z" fill="#FE904D"/>
<path id="Vector_6" d="M38.4842 20.475C38.5858 20.5765 38.6874 20.475 38.7889 20.5562C38.7077 20.7187 38.5452 20.7594 38.403 20.8406C37.5092 21.2875 36.5952 21.6734 35.6202 21.8765C35.4374 21.9172 35.2749 21.9172 35.1327 21.7953C34.9296 21.6328 34.6858 21.5719 34.4217 21.5922C34.0967 21.6125 33.8327 21.4703 33.6296 21.2062C33.4671 20.9828 33.2842 20.8 33.0405 20.6578C32.7561 20.4953 32.5936 20.2312 32.4311 19.9469C32.1061 19.3781 31.9436 18.7687 31.6796 18.1594C31.578 17.9359 31.6389 17.55 31.1921 17.6109C31.1311 17.6109 31.1514 17.5297 31.1514 17.4687C31.253 17.0016 31.1514 16.5547 31.0296 16.1078C30.9077 15.6812 30.9077 15.275 31.1311 14.8687C31.2733 14.6047 31.2936 14.3 31.2327 14.0156C31.1717 13.7719 31.1108 13.5281 31.1717 13.3047C31.1921 13.1828 31.0499 12.8578 31.4155 12.939C31.4561 12.939 31.5171 12.8172 31.5577 12.7359C31.7811 12.2281 31.9436 11.7203 31.8624 11.1515C31.8217 10.9281 31.8827 10.7453 32.1061 10.6437C32.2889 10.5625 32.4514 10.4203 32.553 10.2781C33.1421 9.4453 34.0561 9.14061 34.9499 8.85624C35.4374 8.71405 35.9452 8.59217 36.4733 8.6328C36.6764 8.65311 36.8592 8.69374 36.9811 8.87655C37.0217 8.93749 37.0827 9.01874 37.1639 9.01874C37.8342 8.97811 38.0983 9.48592 38.3827 9.95311C38.4842 10.1156 38.5249 10.2781 38.7483 10.3187C38.8499 10.339 38.8905 10.4812 38.9311 10.5625C39.4186 11.6797 39.7842 12.8578 40.0686 14.0359C40.1296 14.3 39.9874 14.5031 40.0077 14.7469C40.028 15.0922 40.0483 15.4172 40.0686 15.7625C40.0889 16.1078 40.0077 16.4328 39.8655 16.7578C39.703 17.1031 39.5608 17.4484 39.6217 17.8547C39.6421 17.9359 39.6014 18.0375 39.5202 18.0781C39.4592 18.1187 39.3983 18.1797 39.3983 18.2609C39.4999 18.8703 38.9514 19.2765 38.9514 19.8656C38.9514 20.1094 38.6264 20.2515 38.4842 20.475Z" fill="#FE904D"/>
<path id="Vector_7" d="M7.97482 31.3625C7.50763 31.3219 7.16232 31.2406 6.81701 31.1188C6.41076 30.9766 6.06545 30.7328 5.61857 30.6922C5.47638 30.6719 5.37482 30.5094 5.29357 30.3875C5.13107 30.1844 5.0092 29.9609 4.70451 29.9C4.56232 29.8594 4.50138 29.6969 4.44045 29.5547C4.33888 29.25 4.15607 29.0063 3.81076 28.9453C3.7092 28.925 3.64826 28.8641 3.60763 28.8031C3.28263 28.2141 2.7342 27.8078 2.47013 27.1781C2.28732 26.7313 2.02326 26.3047 1.63732 25.9797C1.41388 25.7969 1.35295 25.4922 1.25138 25.2281C0.784197 24.0297 0.438884 22.7906 0.0326341 21.5719C-0.0283034 21.4094 0.0326341 21.3078 0.154509 21.2063C0.276384 21.125 0.377947 21.0438 0.499822 20.9625C0.723259 20.7797 0.885759 20.5563 1.08888 20.3328C1.55607 19.825 2.16545 19.5203 2.87638 19.6016C3.26232 19.6625 3.68888 19.7438 4.05451 19.8453C4.86701 20.0484 5.63888 20.3938 6.39045 20.8C6.65451 20.9422 6.93888 21.0844 7.24357 21.1047C7.42638 21.125 7.50763 21.2875 7.6092 21.4094C7.75138 21.6328 7.89357 21.8156 8.15763 21.9375C8.38107 22.0391 8.46232 22.3234 8.5842 22.5469C8.76701 22.8719 8.9092 23.2375 9.33576 23.3391C9.47795 23.3797 9.5592 23.5422 9.64045 23.6641C9.76232 23.8469 9.90451 24.05 10.1483 24.0906C10.1889 24.0906 10.2295 24.1313 10.2498 24.1719C10.5342 24.7406 11.1233 25.0859 11.2654 25.7563C11.367 26.2641 11.5904 26.7313 11.692 27.2391C11.7529 27.5641 11.8748 27.8688 11.7123 28.1938C11.6514 28.3156 11.7326 28.4578 11.7529 28.5797C11.7733 28.7422 11.8139 28.8844 11.5904 28.9453C11.4483 28.9859 11.4889 29.0875 11.5092 29.1891C11.5295 29.3516 11.4889 29.4938 11.4076 29.6156C10.5342 30.8344 9.19357 31.0781 7.97482 31.3625Z" fill="#FE904D"/>
<path id="Vector_8" d="M0.174855 23.4203C0.0326676 23.2578 -0.0282699 23.0953 0.0123551 22.8922C0.154543 23.0344 0.21548 23.1969 0.174855 23.4203Z" fill="#FE9A5C"/>
<path id="Vector_9" d="M19.7357 19.1141C19.5732 19.2969 19.4107 19.2969 19.2076 19.3172C19.3498 19.0938 19.5123 19.1141 19.7357 19.1141Z" fill="#FEE3D3"/>
</g>
</g>
</svg>
