<svg preserveAspectRatio="none" overflow="visible" style="display: block;" width="25" height="25" viewBox="0 0 25 25" fill="none" xmlns="http://www.w3.org/2000/svg">
<g id="fi_7776927">
<path id="Vector" d="M13.6667 12.5C13.6667 11.6932 13.9697 11.1288 14.4811 10.9545C14.9924 10.7803 15.6174 11.0871 16.0227 11.7121C16.2261 11.9985 16.3614 12.3275 16.4185 12.6741C16.4756 13.0206 16.453 13.3756 16.3523 13.7121C16.3072 13.9004 16.2171 14.0749 16.0898 14.2207C15.9625 14.3665 15.8017 14.4792 15.6212 14.5492C15.5256 14.5791 15.426 14.5944 15.3258 14.5947C15.0397 14.5852 14.7644 14.4828 14.5417 14.303C14.2677 14.0894 14.0464 13.8157 13.8947 13.5032C13.743 13.1906 13.665 12.8474 13.6667 12.5Z" fill="#F2B58C"/>
<path id="Vector_2" d="M21.5909 14.1174C21.514 14.1229 21.4368 14.1229 21.3598 14.1174C21.1123 14.1205 20.8709 14.0405 20.6742 13.8902C20.5514 13.7841 20.4522 13.6535 20.383 13.5066C20.3138 13.3598 20.2763 13.2001 20.2727 13.0379C20.2943 12.5181 20.4701 12.0165 20.7777 11.5969C21.0853 11.1773 21.5108 10.8588 22 10.6818C22.1791 10.6273 22.3684 10.615 22.5531 10.6458C22.7378 10.6767 22.9128 10.75 23.0644 10.8598C23.2063 10.9791 23.3182 11.13 23.3913 11.3004C23.4643 11.4708 23.4963 11.6559 23.4848 11.8409C23.4558 12.3735 23.2559 12.8826 22.9148 13.2927C22.5736 13.7028 22.1094 13.992 21.5909 14.1174Z" fill="#F2B58C"/>
<path id="Vector_3" d="M3.50758 10.0644C3.39827 10.1803 3.26514 10.2711 3.11735 10.3306C2.96957 10.3901 2.81064 10.4169 2.65151 10.4091H2.45076C2.11238 10.3639 1.78854 10.243 1.50328 10.0554C1.21802 9.86789 0.978681 9.61849 0.80303 9.32576C0.378787 8.59848 0.378788 7.95454 0.719697 7.55303C1.06061 7.15151 1.77651 7.08712 2.42424 7.41288C2.7433 7.55874 3.02523 7.7749 3.24892 8.04516C3.4726 8.31542 3.63225 8.63278 3.71591 8.97348C3.77424 9.15835 3.78574 9.35481 3.74937 9.54522C3.71301 9.73563 3.62992 9.91403 3.50758 10.0644Z" fill="#E87E36"/>
<path id="Vector_4" d="M24.5265 15.5303C24.519 15.994 24.3698 16.4443 24.099 16.8208C23.8281 17.1972 23.4486 17.4818 23.0114 17.6364C22.8566 17.69 22.6941 17.7181 22.5303 17.7197C22.3119 17.7238 22.0981 17.6574 21.9205 17.5303C21.7735 17.4086 21.6583 17.2529 21.5851 17.0766C21.5118 16.9004 21.4826 16.709 21.5 16.5189C21.5421 16.0416 21.7306 15.5889 22.0398 15.2228C22.349 14.8566 22.7637 14.5949 23.2273 14.4735C23.3854 14.4277 23.5522 14.4209 23.7136 14.4537C23.8749 14.4865 24.0258 14.5579 24.1535 14.6618C24.2812 14.7657 24.3819 14.8989 24.4468 15.0502C24.5118 15.2014 24.5391 15.3662 24.5265 15.5303Z" fill="#F2B58C"/>
<path id="Vector_5" d="M11.2159 12.9091C11.2563 13.0983 11.2583 13.2936 11.2219 13.4836C11.1854 13.6736 11.1113 13.8543 11.0038 14.0152C10.9022 14.1664 10.7715 14.2959 10.6193 14.396C10.4671 14.4962 10.2965 14.565 10.1174 14.5985C9.72032 14.6599 9.31794 14.6802 8.91667 14.6591C8.64773 14.6591 8.39773 14.6591 8.15909 14.6591C7.67173 14.6964 7.18872 14.7776 6.71591 14.9015C6.52494 14.9588 6.33876 15.031 6.15909 15.1174C5.93307 15.2257 5.69713 15.312 5.45454 15.375C5.33049 15.4045 5.20326 15.4185 5.07576 15.4167C4.75781 15.4173 4.44772 15.3179 4.18939 15.1326C4.00846 14.9991 3.85786 14.8289 3.74751 14.633C3.63717 14.4371 3.5696 14.2201 3.54924 13.9962C3.50473 13.4885 3.54182 12.977 3.65909 12.4811C3.90512 11.2141 4.48732 10.0366 5.3447 9.07197C6.36364 8.01515 7.56061 7.93561 8.71591 8.85606C8.97896 9.05623 9.21906 9.2849 9.43182 9.53788C9.62121 9.7803 9.81061 10.0303 10 10.2955C10.4721 10.9456 10.8378 11.6668 11.0833 12.4318C11.1364 12.5758 11.178 12.7424 11.2159 12.9091Z" fill="#E87E36"/>
<path id="Vector_6" d="M6.77652 6.43939C6.53153 5.98035 6.42914 5.45863 6.48245 4.94104C6.53576 4.42346 6.74235 3.93356 7.07576 3.53409C7.20429 3.39801 7.36224 3.29312 7.53753 3.22747C7.71283 3.16182 7.90082 3.13713 8.08712 3.1553C8.26972 3.18674 8.44248 3.26027 8.59173 3.37007C8.74098 3.47987 8.8626 3.62292 8.94697 3.78788C9.13676 4.12247 9.23354 4.50175 9.22727 4.88636C9.23213 5.22722 9.16516 5.56528 9.03072 5.87854C8.89628 6.1918 8.69738 6.47324 8.44697 6.70455C8.23698 6.88845 7.9685 6.99182 7.68939 6.99621H7.54545C7.38472 6.96433 7.23278 6.89806 7.10005 6.80195C6.96733 6.70584 6.85696 6.58216 6.77652 6.43939Z" fill="#E87E36"/>
<path id="Vector_7" d="M2.87121 5.51894C2.87121 5.43561 2.87121 5.35227 2.87121 5.26894C2.84571 5.06051 2.87531 4.84904 2.95707 4.65563C3.03882 4.46221 3.16986 4.29362 3.33712 4.16667C3.52403 4.07011 3.73309 4.02453 3.94323 4.0345C4.15337 4.04448 4.35717 4.10966 4.53409 4.22348C4.96021 4.4666 5.3018 4.83421 5.51304 5.277C5.72428 5.71979 5.79507 6.21659 5.71591 6.70076C5.68956 6.89694 5.61389 7.08323 5.49598 7.24222C5.37806 7.40121 5.22175 7.52769 5.04167 7.60985C4.93159 7.65192 4.81481 7.67374 4.69697 7.67424C4.42265 7.66541 4.15788 7.57142 3.93939 7.4053L3.84848 7.33712C3.29646 6.88303 2.94538 6.22988 2.87121 5.51894Z" fill="#E87E36"/>
<path id="Vector_8" d="M21.1174 17.9848C21.1967 18.784 21.1494 19.5906 20.9773 20.375C20.9356 20.5417 20.8939 20.7083 20.8371 20.8712C20.7763 21.0519 20.6804 21.2189 20.5549 21.3626C20.4295 21.5062 20.277 21.6237 20.1061 21.7083C19.9178 21.7976 19.7121 21.8442 19.5038 21.8447C19.3476 21.8448 19.1925 21.8179 19.0455 21.7652C18.6709 21.6189 18.3129 21.4335 17.9773 21.2121C17.75 21.0758 17.5341 20.9432 17.3068 20.8333C16.8675 20.6197 16.4099 20.446 15.9394 20.3144C15.7464 20.2679 15.5501 20.2362 15.3523 20.2197C15.0963 20.1984 14.8427 20.154 14.5947 20.0871C14.3831 20.0246 14.1877 19.9166 14.0222 19.7707C13.8566 19.6248 13.725 19.4445 13.6364 19.2424C13.5461 19.0343 13.5018 18.8091 13.5064 18.5823C13.511 18.3555 13.5643 18.1324 13.6629 17.928C13.8856 17.4618 14.1838 17.0356 14.5455 16.6667C15.3982 15.6983 16.494 14.9751 17.7197 14.572C19.1364 14.1932 20.2045 14.7159 20.75 16.0871C20.8766 16.3914 20.9681 16.7091 21.0227 17.0341C21.0568 17.3409 21.0871 17.6515 21.1174 17.9848Z" fill="#F2B58C"/>
<path id="Vector_9" d="M11.7008 6.43939C11.9281 6.8417 12.0274 7.30375 11.9855 7.76394C11.9435 8.22413 11.7623 8.6606 11.4659 9.01515C11.3572 9.15042 11.2209 9.26093 11.0661 9.33932C10.9113 9.4177 10.7415 9.46215 10.5682 9.4697H10.4697C10.2814 9.43892 10.1033 9.36286 9.95093 9.24805C9.79851 9.13324 9.67626 8.98312 9.5947 8.81061C9.43931 8.51409 9.36115 8.18319 9.36742 7.84848C9.36046 7.53671 9.41774 7.22684 9.53569 6.93816C9.65364 6.64947 9.82974 6.38815 10.053 6.17045C10.1673 6.05367 10.3078 5.96594 10.4629 5.91462C10.618 5.86329 10.7831 5.84987 10.9444 5.87546C11.1058 5.90105 11.2586 5.96492 11.3902 6.06171C11.5218 6.15851 11.6283 6.28542 11.7008 6.43182V6.43939Z" fill="#E87E36"/>
<path id="Vector_10" d="M17.2955 12.3371C17.0466 11.669 17.0725 10.9294 17.3674 10.2803C17.4002 10.204 17.4369 10.1294 17.4773 10.0568C17.5631 9.86225 17.6985 9.69368 17.8701 9.56802C18.0416 9.44236 18.2432 9.36404 18.4545 9.34091C18.665 9.34896 18.8694 9.41422 19.0456 9.52968C19.2217 9.64514 19.3631 9.80643 19.4545 9.99621C19.7006 10.4207 19.8107 10.9104 19.77 11.3993C19.7294 11.8882 19.54 12.353 19.2273 12.7311C19.1184 12.8661 18.9821 12.9765 18.8273 13.0549C18.6725 13.1333 18.5029 13.1778 18.3295 13.1856H18.1856C17.9938 13.1457 17.8153 13.0577 17.6669 12.9298C17.5184 12.8019 17.405 12.6384 17.3371 12.4545C17.322 12.4053 17.3068 12.375 17.2955 12.3371Z" fill="#F2B58C"/>
</g>
</svg>
