<svg preserveAspectRatio="none" overflow="visible" style="display: block;" width="18" height="18" viewBox="0 0 18 18" fill="none" xmlns="http://www.w3.org/2000/svg">
<g id="local_dining">
<mask id="mask0_0_1025" style="mask-type:alpha" maskUnits="userSpaceOnUse" x="0" y="0" width="18" height="18">
<rect id="Bounding box" width="18" height="18" fill="#D9D9D9"/>
</mask>
<g mask="url(#mask0_0_1025)">
<path id="local_dining_2" d="M8.98118 10.0875L3.80618 15.225C3.66868 15.3625 3.49681 15.4344 3.29056 15.4406C3.08431 15.4469 2.90618 15.375 2.75618 15.225C2.61868 15.0875 2.54993 14.9125 2.54993 14.7C2.54993 14.4875 2.61868 14.3125 2.75618 14.175L9.91868 7.01252C9.69368 6.48752 9.66243 5.89377 9.82493 5.23127C9.98743 4.56877 10.3437 3.97502 10.8937 3.45002C11.5562 2.78752 12.2937 2.40002 13.1062 2.28752C13.9187 2.17502 14.5812 2.37502 15.0937 2.88752C15.6062 3.40002 15.8062 4.06252 15.6937 4.87502C15.5812 5.68752 15.1937 6.42502 14.5312 7.08752C14.0062 7.63752 13.4124 7.99377 12.7499 8.15627C12.0874 8.31877 11.4937 8.28752 10.9687 8.06252L10.0312 9.00002L15.2062 14.175C15.3437 14.3125 15.4156 14.4844 15.4218 14.6906C15.4281 14.8969 15.3562 15.075 15.2062 15.225C15.0687 15.3625 14.8937 15.4313 14.6812 15.4313C14.4687 15.4313 14.2937 15.3625 14.1562 15.225L8.98118 10.0875ZM5.49368 9.33752L3.24368 7.08752C2.71868 6.56252 2.38743 5.90002 2.24993 5.10002C2.11243 4.30002 2.26868 3.58752 2.71868 2.96252C2.85618 2.77502 3.04056 2.66877 3.27181 2.64377C3.50306 2.61877 3.69993 2.69377 3.86243 2.86877L7.89368 6.93752L5.49368 9.33752Z" fill="#9FA4A5"/>
</g>
</g>
</svg>
